<?xml version="1.0" encoding="utf-8"?>
<!-- Generator: Adobe Illustrator 24.0.1, SVG Export Plug-In . SVG Version: 6.00 Build 0)  -->
<svg version="1.1" id="Слой_1" xmlns="http://www.w3.org/2000/svg" xmlns:xlink="http://www.w3.org/1999/xlink" x="0px" y="0px"
	 viewBox="0 0 664.44 500" style="enable-background:new 0 0 664.44 500;" xml:space="preserve">
<style type="text/css">
	.st0{fill:url(#SVGID_1_);}
	.st1{fill:url(#SVGID_2_);}
	.st2{fill:#6AAFE8;}
	.st3{fill:url(#SVGID_3_);}
	.st4{fill:url(#SVGID_4_);}
	.st5{fill:url(#SVGID_5_);}
	.st6{fill:url(#SVGID_6_);}
	.st7{fill:url(#SVGID_7_);}
	.st8{fill:#FFFFFF;}
	.st9{fill:url(#SVGID_8_);}
	.st10{fill:url(#SVGID_9_);}
	.st11{fill:url(#SVGID_10_);}
	.st12{fill:url(#SVGID_11_);}
	.st13{fill:#1487E3;}
	.st14{fill:#78C2FF;}
	.st15{fill:#FF7E55;}
	.st16{fill:#424773;}
	.st17{fill:#292C47;}
	.st18{fill:#EEA886;}
	.st19{fill:#754836;}
	.st20{fill:#E2D2CA;}
	.st21{fill:#FFCB55;}
	.st22{fill:#A1D4FF;}
	.st23{fill:url(#SVGID_12_);}
	.st24{fill:url(#SVGID_13_);}
	.st25{fill:#4D78EB;}
	.st26{fill:#E0E0E0;}
	.st27{fill:#FF8761;}
	.st28{opacity:0.76;}
	.st29{fill:#4AAFFF;}
	.st30{fill:#1A598C;}
	.st31{fill:#2273B5;}
	.st32{fill:#3788CC;}
	.st33{fill:#414773;}
	.st34{fill:#2D314F;}
	.st35{fill:#2B3B57;}
	.st36{fill:#FFC655;}
	.st37{fill:#353A3D;}
	.st38{fill:#D4D8E8;}
	.st39{fill:#E55353;}
	.st40{fill:#6069A8;}
	.st41{fill:#202338;}
	.st42{fill:#464240;}
	.st43{fill:#EB4747;}
	.st44{fill:#325BB3;}
	.st45{fill:#A77860;}
	.st46{fill:#5E5853;}
	.st47{fill:#91887F;}
	.st48{fill:#EDDAD3;}
	.st49{fill:#6E6760;}
	.st50{fill:#807066;}
</style>
<g>
	<g>
		<g>
			<linearGradient id="SVGID_1_" gradientUnits="userSpaceOnUse" x1="168.4234" y1="258.7669" x2="468.8523" y2="258.7669">
				<stop  offset="0" style="stop-color:#40D5E6"/>
				<stop  offset="1" style="stop-color:#5577FF"/>
			</linearGradient>
			<path class="st0" d="M176.58,358.92h270.43V168.09c0-5.23-4.24-9.47-9.47-9.47H186.05c-5.23,0-9.47,4.24-9.47,9.47V358.92z"/>
		</g>
		<g>
			<linearGradient id="SVGID_2_" gradientUnits="userSpaceOnUse" x1="209.6651" y1="256.8432" x2="460.4951" y2="256.8432">
				<stop  offset="0" style="stop-color:#404B61"/>
				<stop  offset="0.486" style="stop-color:#3C4860"/>
				<stop  offset="1" style="stop-color:#2F3E5C"/>
			</linearGradient>
			<polygon class="st1" points="209.67,333.89 460.5,333.89 460.5,179.8 209.67,179.8 			"/>
		</g>
		<g>
			<path class="st2" d="M159.79,169.14h-63.8l0.11-0.57c1.02-5.26,5.66-9.07,11.03-9.07c0.77,0,1.55,0.08,2.3,0.24
				c3.32-6.32,9.78-10.23,16.94-10.23c6.1,0,11.86,2.93,15.46,7.85c1.31-0.4,2.68-0.6,4.07-0.6c6.94,0,12.75,4.97,13.81,11.82
				L159.79,169.14z M97.17,168.18h61.5c-1.2-6-6.59-10.47-12.77-10.47c-1.4,0-2.78,0.22-4.1,0.66l-0.34,0.11l-0.2-0.29
				c-3.41-4.84-8.98-7.73-14.89-7.73c-6.92,0-13.15,3.84-16.26,10.03l-0.17,0.34l-0.37-0.09c-0.79-0.2-1.62-0.3-2.44-0.3
				C102.41,160.45,98.31,163.67,97.17,168.18z"/>
		</g>
		<g>
			<path class="st2" d="M417.63,101.98l-0.22-0.11c-22.64-11.56-19.6-33.95-19.57-34.17l0.06-0.41h0.41
				c14.4,0,18.92-4.64,18.96-4.69l0.35-0.37l0.35,0.37c0.04,0.04,4.57,4.68,18.96,4.68h0.41l0.06,0.41
				c0.03,0.22,3.07,22.61-19.57,34.17L417.63,101.98z M398.75,68.24c-0.29,3.03-1.24,22.25,18.88,32.67
				c20.13-10.42,19.17-29.63,18.89-32.67c-12.5-0.08-17.59-3.56-18.89-4.66C416.33,64.68,411.25,68.16,398.75,68.24z"/>
		</g>
		<g>
			<g>
				<linearGradient id="SVGID_3_" gradientUnits="userSpaceOnUse" x1="540.6677" y1="349.4562" x2="605.2061" y2="349.4562">
					<stop  offset="0" style="stop-color:#3076A1"/>
					<stop  offset="1" style="stop-color:#639C38"/>
				</linearGradient>
				<path class="st3" d="M541.53,399.51c-3.41-15.57,3.96-19.46,11.08-23.22c5.82-3.07,11.32-5.97,11.02-15.15
					c-0.39-12.17,7.9-16.59,15.21-20.5c5.44-2.91,10.58-5.65,11.35-11.19c1.84-13.32,14.13-29.88,14.26-30.04l0.76,0.57
					c-0.12,0.16-12.26,16.53-14.08,29.61c-0.83,6.02-6.18,8.87-11.84,11.9c-7.41,3.96-15.08,8.05-14.71,19.63
					c0.31,9.77-5.71,12.95-11.53,16.02c-7.12,3.76-13.84,7.31-10.59,22.17L541.53,399.51z"/>
			</g>
			<g>
				<linearGradient id="SVGID_4_" gradientUnits="userSpaceOnUse" x1="535.0615" y1="340.0475" x2="619.3252" y2="340.0475">
					<stop  offset="0" style="stop-color:#3076A1"/>
					<stop  offset="1" style="stop-color:#639C38"/>
				</linearGradient>
				<path class="st4" d="M545.27,395.54c-0.16,0-0.33-0.01-0.49-0.02c-3.08-0.23-6.1-2.57-9.5-7.36l-0.21-0.3l0.24-0.28
					c0.05-0.07,5.51-6.71,3.51-19.19c-0.47-2.91-1.09-5.14-1.59-6.93c-0.73-2.61-1.22-4.34-0.41-5.71
					c1.03-1.75,3.81-2.66,11.64-4.53c8.34-1.99,11.13-11.38,13.58-19.67c2.32-7.81,4.51-15.17,11-14.94
					c5.96,0.23,15.02-9.11,23-17.35c7.41-7.64,14.41-14.84,18.88-14.7c1.07,0.04,1.98,0.49,2.69,1.34
					c3.99,4.75,0.27,11.95-3.33,18.92c-3.07,5.94-5.97,11.56-4.1,15.26c2.35,4.65,2.67,8.86,0.95,12.17
					c-2.04,3.92-6.79,6.45-14.13,7.51c-6.71,0.97-7.44,8.29-8.2,16.04c-0.9,9.04-1.91,19.29-13.17,20.27
					c-8.36,0.72-14,6.59-18.97,11.77C552.68,391.96,549.25,395.54,545.27,395.54z M536.26,387.89c3.1,4.29,5.91,6.48,8.59,6.68
					c3.74,0.28,7.15-3.28,11.1-7.39c5.09-5.3,10.86-11.31,19.58-12.06c10.47-0.91,11.4-10.31,12.31-19.41
					c0.81-8.13,1.57-15.81,9.02-16.89c7.02-1.02,11.54-3.37,13.43-7c1.58-3.03,1.25-6.94-0.96-11.3c-2.09-4.14,0.92-9.96,4.11-16.13
					c3.46-6.69,7.03-13.61,3.45-17.87c-0.54-0.64-1.19-0.97-2-1c-4.04-0.13-10.9,6.92-18.16,14.41
					c-8.42,8.68-17.11,17.64-23.48,17.64c-0.08,0-0.16,0-0.24,0c-5.75-0.21-7.75,6.49-10.05,14.26c-2.53,8.54-5.4,18.21-14.28,20.32
					c-7.08,1.69-10.18,2.63-11.04,4.08c-0.61,1.03-0.19,2.51,0.5,4.97c0.51,1.81,1.14,4.07,1.62,7.03
					C541.61,379.83,537.33,386.44,536.26,387.89z"/>
			</g>
			<g>
				<linearGradient id="SVGID_5_" gradientUnits="userSpaceOnUse" x1="515.7018" y1="327.2992" x2="570.0543" y2="327.2992">
					<stop  offset="0" style="stop-color:#3076A1"/>
					<stop  offset="1" style="stop-color:#639C38"/>
				</linearGradient>
				<path class="st5" d="M545.61,392.28c-0.11,0-0.22,0-0.33-0.02c-5.05-0.46-8.94-11.53-12.69-22.23
					c-1.78-5.08-3.46-9.87-5.1-12.95c-1.27-2.39-2.89-4.88-4.45-7.28c-4.16-6.41-8.46-13.04-7.06-18.86
					c0.74-3.06,2.93-5.61,6.71-7.79c8.28-4.77,7-7.46,4.21-13.37c-2.05-4.33-4.85-10.26-4.96-19.6c-0.05-4.01-0.14-7.48-0.22-10.54
					c-0.26-9.84-0.4-14.78,1.71-16.57c0.87-0.74,2.09-0.93,3.83-0.6c2.98,0.57,4.27,2.97,5.63,5.52c1.74,3.25,3.71,6.93,9.67,8.18
					c5.59,1.17,10.96,2.76,12.44,6.48c1.04,2.61,0.06,6.04-3.02,10.5c-0.75,1.08-1,2-0.78,2.81c0.49,1.79,3.27,3.09,6.49,4.6
					c4.59,2.14,10.29,4.8,11.91,10.32c1.3,4.45-0.21,9.99-4.61,16.95c-10.42,16.47-10,27.64-9.63,37.49
					c0.27,7.3,0.53,14.2-3.87,21.9C549.55,390.61,547.62,392.27,545.61,392.28z M525.76,263.28c-0.74,0-1.3,0.17-1.72,0.53
					c-1.75,1.49-1.62,6.58-1.37,15.81c0.08,3.06,0.17,6.54,0.22,10.56c0.11,9.13,2.86,14.95,4.87,19.21
					c2.77,5.86,4.44,9.39-4.6,14.6c-3.54,2.04-5.59,4.39-6.26,7.18c-1.3,5.42,2.89,11.87,6.94,18.12c1.57,2.42,3.2,4.93,4.49,7.35
					c1.67,3.14,3.37,7.97,5.16,13.08c3.49,9.93,7.44,21.19,11.88,21.59c1.7,0.15,3.48-1.38,5.3-4.57c4.27-7.47,4.03-13.92,3.75-21.4
					c-0.37-9.99-0.8-21.32,9.78-38.03c4.25-6.72,5.72-12.01,4.5-16.17c-1.5-5.1-6.76-7.56-11.4-9.72c-3.44-1.6-6.41-2.99-7.01-5.21
					c-0.3-1.1,0-2.27,0.92-3.6c2.88-4.17,3.83-7.31,2.92-9.6c-1.32-3.3-6.68-4.83-11.75-5.9c-6.39-1.34-8.56-5.4-10.31-8.66
					c-1.31-2.44-2.44-4.55-4.97-5.03C526.58,263.32,526.15,263.28,525.76,263.28z"/>
			</g>
			<g>
				<linearGradient id="SVGID_6_" gradientUnits="userSpaceOnUse" x1="530.8089" y1="339.0525" x2="547.288" y2="339.0525">
					<stop  offset="0" style="stop-color:#3076A1"/>
					<stop  offset="1" style="stop-color:#639C38"/>
				</linearGradient>
				<path class="st6" d="M545.71,398.18l-0.91-0.29c5.09-16.09-4.12-52.21-6.86-60.99c-1.35-4.32-0.1-10.83,1.1-17.12
					c1.56-8.13,3.17-16.53-0.94-19.68c-7.71-5.91-7.31-19.6-7.29-20.18l0.95,0.04c0,0.14-0.41,13.77,6.92,19.39
					c4.58,3.51,2.91,12.2,1.29,20.61c-1.18,6.18-2.41,12.56-1.13,16.65C542.25,347.48,550.79,382.12,545.71,398.18z"/>
			</g>
			<linearGradient id="SVGID_7_" gradientUnits="userSpaceOnUse" x1="493.511" y1="342.3187" x2="546.7125" y2="342.3187">
				<stop  offset="0" style="stop-color:#3076A1"/>
				<stop  offset="1" style="stop-color:#639C38"/>
			</linearGradient>
			<path class="st7" d="M507.2,293.64c-2.12-5.38-10.4-4.56-9.64,3.04c0.76,7.61,6.09,15.73-2.03,28.66
				c-8.12,12.94,10.4,15.47,16.99,23.59c6.59,8.12,8.88,19.28,14.46,26.38c5.58,7.1,9.38,24.1,13.95,17.75
				c4.57-6.34,0.27-14.59,0.78-26c0.51-11.41,10.67-18.64,0.51-26c-10.16-7.36-20.38-9.61-17.02-26.2
				C526.67,307.55,513.79,310.38,507.2,293.64z"/>
			<g>
				<path class="st8" d="M548.33,394.53c-0.06-0.34-5.7-33.77-18.33-42.93c-12.88-9.34-15.22-17.97-19.72-38.33l0.93-0.21
					c4.44,20.1,6.75,28.62,19.34,37.76c12.95,9.39,18.48,42.16,18.71,43.55L548.33,394.53z"/>
			</g>
			<linearGradient id="SVGID_8_" gradientUnits="userSpaceOnUse" x1="529.1331" y1="462.8588" x2="573.8941" y2="288.7888">
				<stop  offset="0" style="stop-color:#3076A1"/>
				<stop  offset="1" style="stop-color:#639C38"/>
			</linearGradient>
			<path class="st9" d="M536.93,393.33c0,0,3.75-9.28-3.08-22.47c-6.83-13.19-12.36-11.16,4.11-21.31
				c16.46-10.15,0.1-42.11,14.12-46.17c14.01-4.06,26.19-55.79,36.84-49.21c10.66,6.59-3.55,31.96,4.06,39.56
				c7.61,7.61,8.63,17.29-7.1,25.14c-15.73,7.84,11.16,37.78-10.15,46.91C554.42,374.92,560.53,410.73,536.93,393.33z"/>
			<g>
				<path class="st8" d="M543.44,403.18c-0.02-0.12-2.32-12,4.92-27.35c7.38-15.64,10.91-32.74,9.44-45.74
					c-0.79-7.04,3.72-9.79,8.08-12.46c4.29-2.62,8.73-5.33,8.49-12.27c-0.22-6.27,2.43-20.96,2.54-21.58l0.94,0.17
					c-0.03,0.15-2.75,15.21-2.53,21.37c0.26,7.49-4.42,10.35-8.95,13.12c-4.3,2.62-8.35,5.1-7.63,11.54
					c1.48,13.17-2.08,30.46-9.53,46.25c-7.1,15.05-4.88,26.64-4.85,26.76L543.44,403.18z"/>
			</g>
			<path class="st8" d="M560.66,337.61c4.79-4.44,11.11-5.09,9.79,1.51c-1.32,6.59-5.84,8.48-3.58,12.62
				c2.26,4.14,6.03,8.29-0.38,13.38c-6.41,5.09-9.98,5.65-11.87,15.26c-1.88,9.61-1.51,16.17-9.8,16.58
				c-8.29,0.41-5.09-11.68-2.45-17.14c0,0,3.96-6.23,1.32-14.42c-2.64-8.19-7.72-12.61,3.01-15.39
				C557.46,347.22,557.43,340.61,560.66,337.61z"/>
			<g>
				<linearGradient id="SVGID_9_" gradientUnits="userSpaceOnUse" x1="545.4034" y1="372.6252" x2="565.0712" y2="372.6252">
					<stop  offset="0" style="stop-color:#3076A1"/>
					<stop  offset="1" style="stop-color:#639C38"/>
				</linearGradient>
				<path class="st10" d="M545.43,403.09c-0.03-1.18-0.6-28.85,4.58-33.51c5.29-4.76,6.3-13.17,6.44-17.75
					c0.18-5.98,7.9-9.53,8.23-9.67l0.39,0.87c-0.08,0.03-7.51,3.45-7.67,8.83c-0.17,5.79-1.48,13.69-6.75,18.43
					c-4.85,4.37-4.27,32.5-4.26,32.78L545.43,403.09z"/>
			</g>
			<linearGradient id="SVGID_10_" gradientUnits="userSpaceOnUse" x1="528.5146" y1="408.0862" x2="564.876" y2="408.0862">
				<stop  offset="0" style="stop-color:#FF9340"/>
				<stop  offset="1" style="stop-color:#FFCE45"/>
			</linearGradient>
			<polygon class="st11" points="564.88,391.8 556.29,424.37 537.1,424.37 528.51,391.8 			"/>
			<linearGradient id="SVGID_11_" gradientUnits="userSpaceOnUse" x1="528.5146" y1="408.0862" x2="564.876" y2="408.0862">
				<stop  offset="0" style="stop-color:#C97332"/>
				<stop  offset="1" style="stop-color:#FFCE45"/>
			</linearGradient>
			<path class="st12" d="M564.88,391.8c0,0-18.9,3.55-18.9,32.58h-8.87l-8.59-32.58H564.88z"/>
		</g>
		<g>
			<rect x="201.33" y="306.67" class="st13" width="25.27" height="2.86"/>
		</g>
		<g>
			<polygon class="st14" points="196.05,227.72 155.72,227.72 155.72,176.14 156.67,176.14 156.67,226.77 196.05,226.77 			"/>
		</g>
		<g>
			<polygon class="st14" points="366.78,193.73 365.83,193.73 365.83,140.54 417.16,140.54 417.16,95.81 418.11,95.81 418.11,141.5 
				366.78,141.5 			"/>
		</g>
		<g>
			<polygon class="st14" points="532.6,252.98 479.2,252.98 479.2,252.03 531.65,252.03 531.65,221.02 532.6,221.02 			"/>
		</g>
		<g>
			<path class="st15" d="M133.32,296.08c0,0-1.14,16.05,1.99,17.97c1.96,1.2,9.79,5.26,9.56,6.02c-0.23,0.76-4.42,6.77-4.42,6.77
				s-15.04-9.91-15.53-13.03c-0.47-3.05,0.74-23.5,2.81-24.44c1.55-0.71,2.37-0.12,4.32,1.33
				C134.79,292.73,133.32,296.08,133.32,296.08z"/>
		</g>
		<g>
			<g>
				<g>
					<path class="st16" d="M131.57,412.85c0,0-0.47,3.25-0.53,3.73c-0.06,0.49-5.2-0.29-5.2-0.29l-0.42-3.87
						C125.42,412.44,130.93,412.4,131.57,412.85z"/>
				</g>
			</g>
		</g>
		<g>
			<g>
				<g>
					<path class="st17" d="M131.1,416.17c0,0,1.63,1.96,3.21,2.81c1.58,0.85,4.05,1.19,4.99,2.07c0.67,0.64,2.45,3.38-4.1,3.32
						c-6.55-0.06-9.71,0.39-10.41-0.66c-0.7-1.05,1.01-7.76,1.01-7.76S127.35,416.51,131.1,416.17z"/>
				</g>
			</g>
		</g>
		<g>
			<g>
				<g>
					<path class="st16" d="M157.32,412.85c0,0-0.47,3.25-0.53,3.73c-0.06,0.49-5.2-0.29-5.2-0.29l-0.42-3.87
						C151.17,412.44,156.68,412.4,157.32,412.85z"/>
				</g>
			</g>
		</g>
		<g>
			<g>
				<g>
					<path class="st17" d="M156.85,416.17c0,0,1.63,1.96,3.21,2.81c1.58,0.85,7.38,1.55,8.31,2.44c0.67,0.64,1.79,3.2-7.42,2.96
						c-6.55-0.17-9.71,0.39-10.41-0.66c-0.7-1.05,1.02-7.76,1.02-7.76S153.01,416.55,156.85,416.17z"/>
				</g>
			</g>
		</g>
		<g>
			<g>
				<g>
					<path class="st17" d="M133.42,329.43c0,0-4.83,7.68-4.47,14.62c0.36,6.94-0.43,14.36-1.16,21.61
						c-0.81,8.09-3.01,24.91-3.13,29.24c-0.12,4.33,0.16,20.6,0.16,20.6l8.39-0.06c0,0,2.98-32.88,4.42-36.29
						c1.44-3.42,7.36-28.12,7.6-30.85C145.46,345.57,133.42,329.43,133.42,329.43z"/>
				</g>
			</g>
		</g>
		<g>
			<g>
				<g>
					<path class="st17" d="M158.86,330.47c0,0,1.91,18.88,2.39,23.13c0.48,4.25,0.15,22.66,0.39,25.32
						c0.24,2.66-1.61,30.75-2.06,36.1l-9.22-0.06c0,0-0.64-22.72-0.64-33.76c0-11.04-2.83-23.89-6.08-31.18
						c-3.25-7.29-10.68-7.46-12.67-20.97C130.98,329.03,156.16,326.18,158.86,330.47z"/>
				</g>
			</g>
		</g>
		<g>
			<g>
				<g>
					<path class="st18" d="M138.52,264.67c0,0,5.76-3.85,9.8,0.27c4.04,4.12,6.03,13.81,3.13,15.75c-2.91,1.93-7.83,2.44-10.17-0.18
						c-2.34-2.62-4.84-6.63-5.45-9.55C135.22,268.03,137.06,265.9,138.52,264.67z"/>
				</g>
			</g>
		</g>
		<g>
			<g>
				<g>
					<path class="st18" d="M149.5,281.34c0,0-0.08,4.05,0.37,4.91c0.45,0.86-8.41,0.89-8.41,0.89s-0.72-4.69-2.08-8.66
						C138.02,274.51,149.5,281.34,149.5,281.34z"/>
				</g>
			</g>
		</g>
		<g>
			<g>
				<g>
					<path class="st19" d="M139.6,278.41c0,0,0.83,0.84,3.16-0.11c2.34-0.95,4.54-4.88,5.47-5.47c0.93-0.59,0.8-1.19,0.8-1.19
						l0.85,0.78l1.09-0.19c0,0-1.66-2.66-0.46-4.18c1.2-1.53-3.74-8.99-10.89-4.43c0,0-5.59,3.06-4.57,6.41
						C136.08,273.36,137.86,277.03,139.6,278.41z"/>
				</g>
			</g>
		</g>
		<g>
			<g>
				<g>
					<path class="st20" d="M150.39,286.15c0,0-0.03-1.65-0.78-1.81c-0.75-0.16-8.25-0.88-9.17-0.52v1.92
						C140.45,285.74,142.22,286.83,150.39,286.15z"/>
				</g>
			</g>
		</g>
		<g>
			<g>
				<g>
					<path class="st18" d="M148.58,270.44c-0.27-0.54-2.11-1.83-2.25,0.05c-0.14,1.88,1.8,3.9,2.54,3.51
						C149.6,273.61,149.27,271.8,148.58,270.44z"/>
				</g>
			</g>
		</g>
		<g>
			<g>
				<g>
					<path class="st19" d="M136.86,265.66c0,0-8.24,2.21,2.41,12.44L136.86,265.66z"/>
				</g>
			</g>
		</g>
		<g>
			<g>
				<path class="st18" d="M210.46,309.46l-8.39-0.08c0.72-0.42,1.9-1.18,1.64-1.53c-0.37-0.49-2.75,0.59-3.71,0.69
					c-0.89,0.09-2.37-0.02-3.5,0.39l-2.65,1.13l2.43,2.25c0,0,4.39,0.63,5.68,0.72c2.09,0.15,8.48-2.34,8.59-2.72
					C210.73,309.63,210.46,309.46,210.46,309.46z"/>
			</g>
		</g>
		<g>
			<g>
				<g>
					<path class="st15" d="M161.35,288.43c-5.34-0.94-10.96-2.29-10.96-2.29l-9.94-0.41c0,0-9.13,2.01-12.72,3.63
						c-0.34,0.15-0.34,8.14-1.28,10.24l2.98,6.29c0,0,1.72,12.45,2.08,17.99c0.16,2.54-3.55,23.84-3.55,23.84s3.98,1.17,10.77,1.92
						c6.79,0.75,23.74-0.27,23.85-1.07c0.11-0.8-3.28-29.84-3.43-31.35c-0.23-2.31,0.67-12.97,0.67-12.97
						c1.28,1.72,8.67,8.16,12.28,10.21c2.57,1.46,8.86,0.57,10.72,0.38c4.01-0.41,15.1-1.2,15.32-1.6c0.17-0.24-0.64-4.28-1.1-4.43
						c-0.41-0.14-14.72-0.84-18.31-0.66c-1.46,0.08-6.21-5.23-6.21-5.23S164.3,289.76,161.35,288.43z"/>
				</g>
			</g>
		</g>
		<g>
			<polygon class="st21" points="100.2,248.24 126.49,248.24 126.49,267.29 126.49,271.3 122.47,267.29 100.2,267.29 			"/>
		</g>
		<g>
			<g>
				<g>
					<path class="st2" d="M523.44,187.62H497.9v-25.54h25.54V187.62z M498.75,186.76h23.83v-23.83h-23.83V186.76z"/>
				</g>
				<g>
					<path class="st2" d="M586.99,171.44h-58.45v-6.24h58.45V171.44z M529.39,170.59h56.74v-4.54h-56.74V170.59z"/>
				</g>
				<g>
					<path class="st2" d="M586.99,200.47H497.9v-6.24h89.09V200.47z M498.75,199.62h87.38v-4.54h-87.38V199.62z"/>
				</g>
				<g>
					<path class="st2" d="M554.65,212.46H497.9v-6.24h56.74V212.46z M498.75,211.61h55.04v-4.54h-55.04V211.61z"/>
				</g>
				<g>
					<path class="st2" d="M568.12,183.35h-39.58v-6.24h39.58V183.35z M529.39,182.5h37.88v-4.54h-37.88V182.5z"/>
				</g>
			</g>
			<g>
				<path class="st2" d="M597.13,226.03H487.76v-77.53h109.37V226.03z M488.61,225.18h107.67v-75.82H488.61V225.18z"/>
			</g>
		</g>
		<g>
			<polygon class="st2" points="449.19,113.79 441.01,113.79 441.01,112.83 448.24,112.83 448.24,105.61 449.19,105.61 			"/>
		</g>
		<g>
			<polygon class="st2" points="394.17,113.79 385.98,113.79 385.98,105.61 386.94,105.61 386.94,112.83 394.17,112.83 			"/>
		</g>
		<g>
			<polygon class="st2" points="386.94,58.76 385.99,58.76 385.99,50.58 394.16,50.58 394.16,51.53 386.94,51.53 			"/>
		</g>
		<g>
			<polygon class="st2" points="449.19,58.76 448.24,58.76 448.24,51.53 441.01,51.53 441.01,50.58 449.19,50.58 			"/>
		</g>
		<g>
			<rect x="448.24" y="70.98" class="st2" width="0.95" height="22.41"/>
		</g>
		<g>
			<rect x="385.98" y="70.98" class="st2" width="0.96" height="22.41"/>
		</g>
		<g>
			<path class="st14" d="M156.2,176.61c-1.93,0-3.5-1.57-3.5-3.5c0-1.93,1.57-3.5,3.5-3.5c1.93,0,3.5,1.57,3.5,3.5
				C159.7,175.04,158.13,176.61,156.2,176.61z M156.2,170.56c-1.41,0-2.55,1.14-2.55,2.55c0,1.41,1.14,2.55,2.55,2.55
				c1.41,0,2.55-1.14,2.55-2.55C158.74,171.71,157.6,170.56,156.2,170.56z"/>
		</g>
		<g>
			<path class="st14" d="M417.63,96.29c-1.93,0-3.5-1.57-3.5-3.5c0-1.93,1.57-3.5,3.5-3.5c1.93,0,3.5,1.57,3.5,3.5
				C421.14,94.72,419.57,96.29,417.63,96.29z M417.63,90.24c-1.4,0-2.55,1.14-2.55,2.55c0,1.41,1.14,2.55,2.55,2.55
				c1.41,0,2.55-1.14,2.55-2.55C420.18,91.38,419.04,90.24,417.63,90.24z"/>
		</g>
		<g>
			<path class="st14" d="M532.13,221.66c-1.93,0-3.5-1.57-3.5-3.5c0-1.93,1.57-3.5,3.5-3.5c1.93,0,3.5,1.57,3.5,3.5
				C535.63,220.09,534.06,221.66,532.13,221.66z M532.13,215.61c-1.41,0-2.55,1.14-2.55,2.55s1.14,2.55,2.55,2.55
				c1.41,0,2.55-1.14,2.55-2.55S533.53,215.61,532.13,215.61z"/>
		</g>
		<g>
			<path class="st22" d="M179.43,79.35h-24.04V55.31h24.04V79.35z M156.34,78.4h22.13V56.26h-22.13V78.4z"/>
		</g>
		<g>
			<rect x="166.93" y="61.86" class="st22" width="0.95" height="11.21"/>
		</g>
		<g>
			<rect x="161.8" y="66.99" class="st22" width="11.21" height="0.95"/>
		</g>
		<g>
			<path class="st22" d="M545.81,108.36h-34.37V83.82h34.37V108.36z M512.4,107.4h32.46V84.78H512.4V107.4z"/>
		</g>
		<g>
			<polygon class="st22" points="528.63,98.68 511.62,84.67 512.22,83.93 528.63,97.45 545.03,83.93 545.64,84.67 			"/>
		</g>
		<g>
			
				<rect x="538.69" y="92.42" transform="matrix(0.7255 -0.6882 0.6882 0.7255 78.2154 398.8695)" class="st22" width="0.95" height="17.92"/>
		</g>
		<g>
			
				<rect x="509.13" y="100.9" transform="matrix(0.6877 -0.726 0.726 0.6877 88.2174 407.8141)" class="st22" width="17.92" height="0.95"/>
		</g>
		<g>
			<path class="st22" d="M239.42,133l-0.36-0.93c-0.32-0.04-0.63-0.11-0.94-0.22l-0.73,0.68l-2.12-1.51l0.41-0.91
				c-0.2-0.26-0.37-0.53-0.51-0.82l-1-0.03l-0.43-2.56l0.93-0.36c0.04-0.32,0.11-0.64,0.22-0.94l-0.68-0.73l1.51-2.12l0.91,0.41
				c0.26-0.2,0.53-0.37,0.82-0.51l0.03-1l2.56-0.43l0.36,0.93c0.32,0.04,0.64,0.11,0.94,0.22l0.73-0.68l2.12,1.51l-0.41,0.91
				c0.2,0.26,0.37,0.53,0.51,0.82l1,0.03l0.43,2.56l-0.93,0.36c-0.04,0.32-0.12,0.64-0.22,0.94l0.69,0.73l-1.51,2.12l-0.91-0.41
				c-0.25,0.2-0.53,0.37-0.82,0.51l-0.03,1L239.42,133z M237.95,131.03l0.21,0.08c0.38,0.15,0.78,0.24,1.19,0.27l0.22,0.02l0.31,0.8
				l1.41-0.24l0.03-0.86l0.21-0.09c0.37-0.17,0.72-0.38,1.03-0.64l0.17-0.14l0.78,0.35l0.83-1.16l-0.59-0.63l0.08-0.21
				c0.15-0.38,0.24-0.78,0.27-1.19l0.02-0.22l0.8-0.31l-0.24-1.41l-0.86-0.03l-0.09-0.2c-0.17-0.37-0.38-0.72-0.64-1.03l-0.14-0.17
				l0.35-0.78l-1.16-0.83L241.5,123l-0.21-0.08c-0.38-0.15-0.78-0.24-1.18-0.27l-0.22-0.02l-0.31-0.8l-1.41,0.24l-0.03,0.86
				l-0.21,0.09c-0.37,0.17-0.72,0.38-1.03,0.64l-0.17,0.14l-0.78-0.35l-0.83,1.16l0.59,0.63l-0.08,0.21
				c-0.14,0.38-0.24,0.78-0.27,1.19l-0.02,0.22l-0.8,0.31l0.24,1.41l0.86,0.03l0.09,0.2c0.17,0.37,0.38,0.72,0.65,1.03l0.14,0.17
				l-0.35,0.78l1.16,0.83L237.95,131.03z M239.72,129.84c-0.58,0-1.15-0.18-1.63-0.52c-1.27-0.9-1.57-2.67-0.66-3.94
				c0.9-1.27,2.67-1.57,3.94-0.66c0.62,0.44,1.02,1.09,1.15,1.83c0.13,0.74-0.05,1.49-0.48,2.11c-0.44,0.62-1.09,1.02-1.83,1.15
				C240.04,129.82,239.88,129.84,239.72,129.84z M239.73,124.9c-0.66,0-1.31,0.31-1.72,0.89c-0.33,0.46-0.46,1.02-0.36,1.57
				c0.09,0.56,0.4,1.04,0.86,1.37l0,0c0.46,0.33,1.02,0.46,1.57,0.36c0.55-0.09,1.04-0.4,1.37-0.86c0.33-0.46,0.46-1.02,0.36-1.57
				c-0.09-0.56-0.4-1.04-0.86-1.37C240.58,125.03,240.15,124.9,239.73,124.9z"/>
		</g>
		<g>
			<path class="st22" d="M219.57,135.99l-0.8-2.09c-0.86-0.1-1.7-0.29-2.51-0.57l-1.63,1.53l-4.42-3.15l0.91-2.04
				c-0.53-0.67-0.99-1.4-1.36-2.18l-2.23-0.07l-0.9-5.35l2.09-0.8c0.1-0.86,0.29-1.7,0.57-2.51l-1.53-1.63l3.14-4.42l2.04,0.91
				c0.67-0.54,1.4-0.99,2.18-1.36l0.07-2.23l5.35-0.9l0.8,2.09c0.86,0.1,1.7,0.29,2.51,0.57l1.63-1.53l4.42,3.15l-0.91,2.04
				c0.54,0.67,0.99,1.4,1.36,2.18l2.23,0.07l0.9,5.35l-2.09,0.8c-0.1,0.86-0.29,1.7-0.58,2.51l1.53,1.63l-3.15,4.42l-2.04-0.91
				c-0.67,0.54-1.4,0.99-2.18,1.36l-0.07,2.23L219.57,135.99z M216.04,132.23l0.28,0.11c0.91,0.35,1.86,0.56,2.83,0.65l0.3,0.03
				l0.73,1.91l3.81-0.64l0.06-2.04l0.27-0.12c0.89-0.4,1.72-0.91,2.46-1.54l0.23-0.19l1.87,0.83l2.24-3.15l-1.4-1.49l0.11-0.28
				c0.35-0.91,0.57-1.86,0.65-2.83l0.03-0.3l1.91-0.73l-0.64-3.81l-2.04-0.06l-0.12-0.27c-0.4-0.89-0.92-1.72-1.54-2.46l-0.19-0.23
				l0.83-1.87l-3.15-2.24l-1.49,1.4l-0.28-0.11c-0.91-0.35-1.86-0.56-2.83-0.65l-0.3-0.03l-0.73-1.91l-3.81,0.64l-0.07,2.04
				l-0.27,0.12c-0.89,0.4-1.72,0.91-2.46,1.54l-0.23,0.19l-1.87-0.83l-2.24,3.15l1.4,1.49l-0.11,0.28c-0.35,0.9-0.56,1.86-0.65,2.83
				l-0.03,0.3l-1.91,0.73l0.64,3.81l2.04,0.06l0.12,0.27c0.4,0.89,0.92,1.72,1.54,2.46l0.19,0.23l-0.83,1.87l3.15,2.24
				L216.04,132.23z M220.04,128.73c-1.24,0-2.49-0.37-3.57-1.14c-2.77-1.97-3.42-5.83-1.45-8.61c1.97-2.77,5.83-3.42,8.6-1.45
				c2.77,1.97,3.42,5.83,1.45,8.6C223.88,127.83,221.98,128.73,220.04,128.73z M220.06,117.35c-1.63,0-3.24,0.76-4.26,2.19
				c-0.81,1.14-1.13,2.52-0.89,3.89c0.23,1.37,0.98,2.58,2.12,3.38c2.34,1.67,5.61,1.12,7.28-1.23c0.81-1.13,1.13-2.52,0.89-3.89
				c-0.23-1.37-0.98-2.58-2.12-3.38C222.16,117.66,221.11,117.35,220.06,117.35z"/>
		</g>
		<g>
			<g>
				<g>
					<path class="st14" d="M94.77,141.01c-9.81,0-17.79-7.98-17.79-17.79h0.95c0,9.29,7.55,16.84,16.84,16.84
						c9.29,0,16.84-7.55,16.84-16.84c0-9.28-7.55-16.84-16.84-16.84v-0.95c9.81,0,17.79,7.98,17.79,17.79
						C112.56,133.03,104.58,141.01,94.77,141.01z M94.77,138.53c-8.45,0-15.32-6.87-15.32-15.32c0-8.45,6.87-15.32,15.32-15.32
						s15.32,6.87,15.32,15.32h-0.95c0-7.92-6.44-14.37-14.37-14.37c-7.92,0-14.37,6.44-14.37,14.37c0,7.92,6.44,14.37,14.37,14.37
						V138.53z"/>
				</g>
			</g>
		</g>
		<g>
			<polygon class="st14" points="92.59,129.11 86.17,122.69 86.85,122.02 92.59,127.76 102.69,117.66 103.37,118.33 			"/>
		</g>
		<linearGradient id="SVGID_12_" gradientUnits="userSpaceOnUse" x1="335.3608" y1="330.6871" x2="335.3608" y2="497.2635">
			<stop  offset="0" style="stop-color:#40D5E6"/>
			<stop  offset="1" style="stop-color:#5577FF"/>
		</linearGradient>
		<polygon class="st23" points="470.52,341.38 335.36,341.38 200.2,341.38 170.62,451.94 336.25,451.94 500.1,451.94 		"/>
		<path class="st8" d="M210.43,360.77h16.61c0.69,0,1.22,0.54,1.09,1.12l-1.61,7.22c-0.1,0.45-0.56,0.77-1.09,0.77h-16.89
			c-0.71,0-1.24-0.56-1.08-1.15l1.89-7.22C209.46,361.08,209.91,360.77,210.43,360.77z"/>
		<polygon class="st8" points="234.65,360.77 247.21,360.77 245.54,369.89 232.74,369.89 		"/>
		<polygon class="st8" points="253.49,360.77 266.04,360.77 264.73,369.89 251.93,369.9 		"/>
		<polygon class="st8" points="272.32,360.77 284.87,360.77 283.92,369.89 271.12,369.89 		"/>
		<polygon class="st8" points="291.15,360.77 303.71,360.77 303.11,369.89 290.32,369.89 		"/>
		<polygon class="st8" points="309.99,360.77 322.54,360.77 322.3,369.89 309.51,369.9 		"/>
		<polygon class="st8" points="460.7,360.77 441.86,360.77 443.89,369.89 463.08,369.89 		"/>
		<polygon class="st8" points="435.59,360.77 423.03,360.77 424.7,369.89 437.5,369.89 		"/>
		<polygon class="st8" points="416.75,360.77 404.2,360.77 405.51,369.89 418.31,369.9 		"/>
		<polygon class="st8" points="397.92,360.77 385.36,360.77 386.32,369.89 399.11,369.89 		"/>
		<polygon class="st8" points="379.08,360.77 366.53,360.77 367.13,369.89 379.92,369.89 		"/>
		<polygon class="st8" points="360.25,360.77 347.69,360.77 347.93,369.89 360.73,369.9 		"/>
		<polygon class="st8" points="328.82,360.77 341.38,360.77 341.58,369.89 328.82,369.89 		"/>
		<polygon class="st8" points="204.9,376.68 231.14,376.68 229.64,386.08 202.91,386.08 		"/>
		<polygon class="st8" points="464.79,376.68 432.36,376.68 434.21,386.08 467.26,386.08 		"/>
		<polygon class="st8" points="425.88,376.68 412.9,376.68 414.38,386.08 427.6,386.08 		"/>
		<polygon class="st8" points="406.42,376.68 393.45,376.68 394.55,386.08 407.77,386.08 		"/>
		<polygon class="st8" points="386.96,376.68 373.99,376.68 374.73,386.08 387.94,386.08 		"/>
		<polygon class="st8" points="367.5,376.68 354.53,376.68 354.9,386.08 368.12,386.08 		"/>
		<polygon class="st8" points="200.98,393.44 227.81,393.44 225.85,402.78 198.54,402.78 		"/>
		<polygon class="st8" points="234.51,393.44 247.92,393.44 246.33,402.78 232.68,402.78 		"/>
		<polygon class="st8" points="254.63,393.44 268.04,393.44 355.21,393.44 355.58,402.78 253.16,402.78 		"/>
		<polygon class="st8" points="361.92,393.44 375.33,393.44 376.07,402.78 362.41,402.78 		"/>
		<polygon class="st8" points="382.04,393.44 395.45,393.44 396.55,402.78 382.89,402.78 		"/>
		<polygon class="st8" points="402.16,393.44 415.57,393.44 417.03,402.78 403.38,402.78 		"/>
		<polygon class="st8" points="422.27,393.44 435.68,393.44 437.52,402.78 423.86,402.78 		"/>
		<polygon class="st8" points="442.39,393.44 469.21,393.44 471.66,402.78 444.35,402.78 		"/>
		<polygon class="st8" points="348.07,376.68 335.2,376.68 335.2,386.08 348.32,386.08 		"/>
		<polygon class="st8" points="328.61,376.68 315.64,376.68 315.27,386.08 328.49,386.08 		"/>
		<polygon class="st8" points="309.15,376.68 296.18,376.68 295.44,386.08 308.66,386.08 		"/>
		<polygon class="st8" points="289.69,376.68 276.72,376.68 275.61,386.08 288.83,386.08 		"/>
		<polygon class="st8" points="246.71,365.3 233.74,365.3 232.26,374.71 245.48,374.71 		"/>
		<polygon class="st8" points="250.78,376.68 237.8,376.68 235.96,386.08 249.18,386.08 		"/>
		<polygon class="st8" points="211.04,355.05 213.17,346.91 219.27,346.91 217.28,355.05 		"/>
		<polygon class="st8" points="225.36,346.91 237.56,346.91 235.85,355.05 223.45,355.05 		"/>
		<polygon class="st8" points="243.65,346.91 255.84,346.91 254.46,355.05 242.05,355.05 		"/>
		<polygon class="st8" points="261.94,346.91 274.13,346.91 273.07,355.05 260.66,355.05 		"/>
		<polygon class="st8" points="280.23,346.91 292.42,346.91 291.68,355.05 279.27,355.05 		"/>
		<polygon class="st8" points="298.52,346.91 310.71,346.91 310.29,355.05 297.88,355.05 		"/>
		<polygon class="st8" points="316.81,346.91 329,346.91 328.89,355.05 316.49,355.05 		"/>
		<polygon class="st8" points="335.1,346.91 347.29,346.91 347.5,355.05 335.1,355.05 		"/>
		<polygon class="st8" points="353.39,346.91 365.58,346.91 366.11,355.05 353.71,355.05 		"/>
		<polygon class="st8" points="371.67,346.91 383.87,346.91 384.72,355.05 372.32,355.05 		"/>
		<polygon class="st8" points="389.96,346.91 402.16,346.91 403.33,355.05 390.92,355.05 		"/>
		<polygon class="st8" points="408.25,346.91 420.45,346.91 421.94,355.05 409.53,355.05 		"/>
		<polygon class="st8" points="426.54,346.91 438.73,346.91 440.55,355.05 428.14,355.05 		"/>
		<polygon class="st8" points="444.83,346.91 457.02,346.91 459.16,355.05 446.75,355.05 		"/>
		<linearGradient id="SVGID_13_" gradientUnits="userSpaceOnUse" x1="17.9067" y1="456.2473" x2="347.392" y2="456.2473">
			<stop  offset="0" style="stop-color:#40D5E6"/>
			<stop  offset="1" style="stop-color:#5577FF"/>
		</linearGradient>
		<path class="st24" d="M491.5,460.55H179.23c-4.75,0-8.61-3.85-8.61-8.61l0,0H500.1l0,0C500.1,456.7,496.25,460.55,491.5,460.55z"
			/>
		<path class="st25" d="M373.66,416.21c-0.32-1.95-2-3.37-3.98-3.37h-34.32h-34.32c-1.97,0-3.66,1.43-3.98,3.37l-4.29,25.95
			c-0.41,2.46,1.49,4.69,3.98,4.69h38.61h38.61c2.49,0,4.38-2.23,3.98-4.69L373.66,416.21z"/>
		<g>
			<g>
				<rect x="226.6" y="192.87" class="st26" width="27.94" height="2.86"/>
			</g>
			<g>
				<rect x="262.36" y="214.42" class="st26" width="20.17" height="2.86"/>
			</g>
			<g>
				<rect x="285.68" y="214.42" class="st13" width="13.39" height="2.86"/>
			</g>
			<g>
				<rect x="226.92" y="268.59" class="st13" width="13.39" height="2.86"/>
			</g>
			<g>
				<rect x="301.72" y="214.42" class="st26" width="32.32" height="2.86"/>
			</g>
			<g>
				<rect x="226.92" y="257.74" class="st26" width="20.77" height="2.86"/>
			</g>
			<g>
				<rect x="255.87" y="279.37" class="st26" width="12.68" height="2.86"/>
			</g>
			<g>
				<rect x="226.92" y="279.37" class="st13" width="25.12" height="2.86"/>
			</g>
			<g>
				<rect x="226.92" y="290.14" class="st26" width="13.86" height="2.86"/>
			</g>
			<g>
				<rect x="259.98" y="192.87" class="st14" width="19.84" height="2.86"/>
			</g>
			<g>
				<rect x="259.98" y="225.19" class="st13" width="19.84" height="2.86"/>
			</g>
			<g>
				<rect x="250.06" y="235.96" class="st26" width="8.48" height="2.86"/>
			</g>
			<g>
				<rect x="241.59" y="246.89" class="st14" width="19.04" height="2.86"/>
			</g>
			<g>
				<rect x="263.5" y="246.89" class="st13" width="26.28" height="2.86"/>
			</g>
			<g>
				<rect x="226.92" y="236.04" class="st13" width="19.84" height="2.86"/>
			</g>
			<g>
				<rect x="226.92" y="246.89" class="st13" width="11.77" height="2.86"/>
			</g>
			<g>
				<rect x="262.53" y="236.04" class="st27" width="11.1" height="2.86"/>
			</g>
			<g>
				<rect x="227.25" y="300.91" class="st27" width="11.1" height="2.86"/>
			</g>
			<g>
				<rect x="226.84" y="214.42" class="st14" width="19.84" height="2.86"/>
			</g>
			<g>
				<rect x="244.38" y="268.59" class="st14" width="19.84" height="2.86"/>
			</g>
			<g>
				<rect x="244.63" y="290.14" class="st14" width="19.84" height="2.86"/>
			</g>
			<g>
				<rect x="279.86" y="290.14" class="st14" width="19.84" height="2.86"/>
			</g>
			<g>
				<rect x="226.84" y="225.19" class="st14" width="28.28" height="2.86"/>
			</g>
			<g>
				<rect x="359.35" y="192.87" class="st14" width="19.84" height="2.86"/>
			</g>
			<g>
				<rect x="288.68" y="300.91" class="st14" width="19.84" height="2.86"/>
			</g>
			<g>
				<rect x="385.35" y="192.87" class="st14" width="13.28" height="2.86"/>
			</g>
			<g>
				<rect x="430.28" y="203.64" class="st14" width="13.28" height="2.86"/>
			</g>
			<g>
				<rect x="285.16" y="192.87" class="st13" width="25.27" height="2.86"/>
			</g>
			<g>
				<rect x="383.63" y="203.64" class="st13" width="25.27" height="2.86"/>
			</g>
			<g>
				<rect x="352.63" y="214.42" class="st13" width="25.27" height="2.86"/>
			</g>
			<g>
				<rect x="319.73" y="225.19" class="st13" width="25.27" height="2.86"/>
			</g>
			<g>
				<rect x="381.08" y="214.42" class="st14" width="17.97" height="2.86"/>
			</g>
			<g>
				<rect x="329.12" y="192.87" class="st27" width="25.27" height="2.86"/>
			</g>
			<g>
				<rect x="300.28" y="225.19" class="st27" width="14.82" height="2.86"/>
			</g>
			<g>
				<rect x="288.68" y="268.75" class="st27" width="14.82" height="2.86"/>
			</g>
			<g>
				<rect x="315.1" y="192.87" class="st26" width="9.25" height="2.86"/>
			</g>
			<g>
				<rect x="285.16" y="225.19" class="st26" width="9.25" height="2.86"/>
			</g>
			<g>
				<rect x="415" y="203.64" class="st26" width="9.25" height="2.86"/>
			</g>
			<g>
				<rect x="226.6" y="203.64" class="st13" width="14.47" height="2.86"/>
			</g>
			<g>
				<rect x="265.22" y="257.82" class="st13" width="11.43" height="2.86"/>
			</g>
			<g>
				<rect x="244.63" y="203.64" class="st13" width="4.67" height="2.86"/>
			</g>
			<g>
				<rect x="340.56" y="203.64" class="st26" width="38.62" height="2.86"/>
			</g>
			<g>
				<rect x="303.5" y="290.14" class="st26" width="38.63" height="2.86"/>
			</g>
			<g>
				<rect x="252.73" y="203.64" class="st27" width="4.77" height="2.86"/>
			</g>
			<g>
				<rect x="324.35" y="203.64" class="st13" width="12.64" height="2.86"/>
			</g>
			<g>
				<rect x="336.99" y="214.42" class="st27" width="12.64" height="2.86"/>
			</g>
			<g>
				<rect x="272.01" y="300.91" class="st27" width="12.64" height="2.86"/>
			</g>
			<g>
				<rect x="294.12" y="203.64" class="st13" width="26.89" height="2.86"/>
			</g>
			<g>
				<rect x="269.1" y="268.75" class="st13" width="15.71" height="2.86"/>
			</g>
			<g>
				<rect x="268.08" y="290.14" class="st13" width="7.86" height="2.86"/>
			</g>
			<g>
				<rect x="281.06" y="203.64" class="st14" width="9.25" height="2.86"/>
			</g>
			<g>
				<rect x="249.92" y="214.42" class="st27" width="9.25" height="2.86"/>
			</g>
			<g>
				<rect x="251.76" y="257.82" class="st27" width="9.25" height="2.86"/>
			</g>
			<g>
				<rect x="261.41" y="203.64" class="st13" width="16.12" height="2.86"/>
			</g>
		</g>
		<g class="st28">
			<path class="st8" d="M497.41,317.82H380.53c-2.22,0-4.01-1.8-4.01-4.01v-81.03c0-2.22,1.8-4.01,4.01-4.01h116.88
				c2.22,0,4.01,1.8,4.01,4.01v81.03C501.43,316.03,499.63,317.82,497.41,317.82z"/>
		</g>
		<g>
			<g>
				<path class="st29" d="M487.94,280.79h-20.13c-0.85,0-1.54-0.69-1.54-1.54v-3.11c0-0.85,0.69-1.54,1.54-1.54h20.13
					c0.85,0,1.54,0.69,1.54,1.54v3.11C489.48,280.1,488.79,280.79,487.94,280.79z"/>
			</g>
		</g>
		<g>
			<g>
				<path class="st29" d="M487.94,292.37h-20.13c-0.85,0-1.54-0.69-1.54-1.54v-3.11c0-0.85,0.69-1.54,1.54-1.54h20.13
					c0.85,0,1.54,0.69,1.54,1.54v3.11C489.48,291.69,488.79,292.37,487.94,292.37z"/>
			</g>
		</g>
		<g>
			<g>
				<path class="st29" d="M487.94,303.96h-20.13c-0.85,0-1.54-0.69-1.54-1.54v-3.11c0-0.85,0.69-1.54,1.54-1.54h20.13
					c0.85,0,1.54,0.69,1.54,1.54v3.11C489.48,303.27,488.79,303.96,487.94,303.96z"/>
			</g>
		</g>
		<g>
			<g>
				<g>
					<path class="st29" d="M455.05,260.8c-5.16-14.43-18.96-23.3-33.5-22.86c-3.52,0.11-7.08,0.76-10.58,2.01
						c-10.59,3.79-18.18,12.22-21.3,22.19c-2.16,6.91-2.18,14.55,0.45,21.89c0.26,0.73,0.54,1.45,0.85,2.15
						c1.38,3.18,3.19,6.05,5.34,8.58c9.02,10.61,23.99,15.09,37.88,10.12C452.13,298.46,461.46,278.73,455.05,260.8z M431.29,296.75
						c-10.41,3.72-21.64,0.36-28.4-7.59c-1.61-1.89-2.97-4.05-4.01-6.44c-0.23-0.53-0.44-1.06-0.64-1.61
						c-1.97-5.5-1.96-11.23-0.34-16.41c2.34-7.47,8.03-13.8,15.97-16.64c2.62-0.94,5.29-1.43,7.93-1.51
						c10.9-0.33,21.24,6.32,25.11,17.14C451.74,277.15,444.73,291.94,431.29,296.75z"/>
				</g>
			</g>
			<g>
				<g>
					<path class="st30" d="M397.91,264.7l-8.24-2.57c3.12-9.97,10.71-18.4,21.3-22.19c3.5-1.25,7.06-1.9,10.58-2.01l0.26,8.63
						c-2.64,0.08-5.31,0.57-7.93,1.51C405.94,250.91,400.25,257.23,397.91,264.7z"/>
				</g>
			</g>
			<g>
				<g>
					<path class="st31" d="M398.88,282.72l-7.91,3.44c-0.3-0.7-0.59-1.42-0.85-2.15c-2.63-7.34-2.61-14.98-0.45-21.89l8.24,2.57
						c-1.62,5.18-1.63,10.91,0.34,16.41C398.44,281.66,398.66,282.2,398.88,282.72z"/>
				</g>
			</g>
			<g>
				<g>
					<path class="st32" d="M396.32,294.75c-2.15-2.53-3.96-5.4-5.34-8.58l7.91-3.44c1.03,2.38,2.39,4.54,4.01,6.44L396.32,294.75z"
						/>
				</g>
			</g>
		</g>
		<g>
			<g>
				<g>
					<path class="st18" d="M434.1,292.86c0,0-1.67-2.92,0.98-10.76c2.56-7.58,11.43-6.89,14.25-2.04c2.82,4.85,1.87,7.87-2.28,13.35
						C442.89,298.89,435.82,295.36,434.1,292.86z"/>
				</g>
			</g>
			<g>
				<g>
					<path class="st18" d="M454.69,427.62c0,0,0.44,3.22,0.49,3.7c0.05,0.48,4.88-0.29,4.88-0.29l0.39-3.83
						C460.46,427.21,455.3,427.17,454.69,427.62z"/>
				</g>
			</g>
			<g>
				<g>
					<path class="st33" d="M455.13,430.91c0,0-1.53,1.94-3.01,2.78c-1.48,0.85-3.8,1.18-4.68,2.05c-0.63,0.63-2.3,3.35,3.84,3.29
						c6.14-0.05,9.1,0.38,9.76-0.66c0.66-1.04-0.95-7.69-0.95-7.69S458.6,431.12,455.13,430.91z"/>
				</g>
			</g>
			<g>
				<g>
					<path class="st18" d="M421.27,427.62c0,0,0.44,3.22,0.49,3.7c0.05,0.48,4.88-0.29,4.88-0.29l0.39-3.83
						C427.04,427.21,421.88,427.17,421.27,427.62z"/>
				</g>
			</g>
			<g>
				<g>
					<path class="st33" d="M421.72,430.91c0,0-1.53,1.94-3.01,2.78c-1.48,0.85-6.92,1.54-7.8,2.41c-0.63,0.63-1.68,3.17,6.96,2.93
						c6.14-0.17,9.1,0.38,9.76-0.66c0.66-1.04-0.95-7.69-0.95-7.69S424.78,431.03,421.72,430.91z"/>
				</g>
			</g>
			<g>
				<g>
					<path class="st34" d="M453.07,347.52c0,0,2.47,7.69,2.15,14.32c-0.33,6.63,1.28,13.88,1.94,20.8
						c0.73,7.72,3.73,25.99,3.83,30.12c0.11,4.13-0.46,17.31-0.46,17.31l-5.99,0.14c0,0-5.03-31.94-6.34-35.2
						c-1.3-3.26-7.77-26.49-7.99-29.1C439.99,363.3,453.07,347.52,453.07,347.52z"/>
				</g>
			</g>
			<g>
				<g>
					<path class="st34" d="M428.22,346.72c0,0-3.64,20.33-4.07,24.39c-0.43,4.06-0.72,19.63-0.94,22.16
						c-0.22,2.53-1.45,33.17-2.61,36.94h6.68c0,0,6.86-22.27,6.86-32.81c0-10.54,4.54-22.91,7.48-29.86
						c2.93-6.95,9.65-7.12,11.45-20.02C453.07,347.52,430.66,342.63,428.22,346.72z"/>
				</g>
			</g>
			<g>
				<g>
					<path class="st18" d="M436.52,294.93c0,0,0.75,2.19,0,3.76c-0.75,1.56,9.63,0.63,9.63,0.63s-0.47-3.24,0.89-5.9
						C448.4,290.75,436.52,294.93,436.52,294.93z"/>
				</g>
			</g>
			<g>
				<g>
					<path class="st35" d="M453.55,349.2c0,0-3.74,3.84-25.67-0.6l0.33-1.88l24.93,0.94L453.55,349.2z"/>
				</g>
			</g>
			<g>
				<g>
					<path class="st18" d="M434.95,299.19c0,0-3.84,0.39-4.93,0.6c-1.1,0.21-8.47-1.32-9.99-1.48c-1.51-0.16-7.97-4.58-8.18-5.1
						c-0.21-0.52-3.93-9.93-4.13-11.97c-0.21-2.04-3.62-0.99-3.33,0.42c0.55,2.62,1.25,8.99,1.64,10.84
						c0.42,1.99,1.53,6.51,2.16,7.06c0.63,0.56,6.44,4.97,12.13,6.85c5.69,1.88,9.97,4.65,9.97,4.65h28.04
						c0,0,10.9-15.59,11.14-17.94c0.23-2.35-7.62-17.96-9.18-19.92c-1.57-1.96-3.83,0.64-3.83,0.64s4.69,13.77,5.32,15.72
						c0.63,1.96-5.46,10.56-7.13,10.58c-1.67,0.03-5.96-0.52-7.86-0.6c-1.91-0.08-3.92-0.91-3.92-0.91L434.95,299.19z"/>
				</g>
			</g>
			<g>
				<g>
					<path class="st36" d="M422.87,309.61c0,0,3.43,2.28,3.75,6.2c0.31,3.92,1.57,10.1,2.19,12.21c0.63,2.11-0.55,17.46-0.7,18.55
						c-0.16,1.1,21.69,3.7,25.05,1.1c0,0,0.94-14.33,1.33-18.4s2.27-13.93,2.9-15.26c0.63-1.33,8.22-11.98,8.53-13.39
						c0,0-3.93-6.26-6.75-6.34c0,0-4.48,5.25-5.93,5.48c-1.46,0.23-10.4-1.4-10.41-1.42c0,0-0.98,1.33-6.17-0.24
						c0,0-6.18,0.7-7.19,0.83c-1.22,0.16-9.68-1.06-9.68-1.06s-3.4,5.73-2.8,8.63L422.87,309.61z"/>
				</g>
			</g>
			<g>
				<g>
					<path class="st18" d="M407.92,282.47c0,0-0.77-3.63,0.16-4.67c0.53-0.59,1.79-2.16,1.9-2.39c0.12-0.23,1.47-1.01,1.47-1.38
						s-1.33-0.84-2.48,0.23c-1.15,1.07-1.87,1.3-2.33,1.18c-0.46-0.12-1.13-3.95-1.18-4.9c-0.06-0.95-0.42-3.46-1.02-3.29
						c-0.59,0.17-0.57,1.27-0.57,1.27s-0.69-1.9-1.15-1.53c-0.46,0.37-0.4,1.3-0.4,1.3s-0.87-1.07-1.1-0.29
						c-0.23,0.78,0,1.47,0,1.47s-0.89-0.49-0.95,0.72c-0.06,1.21,0.26,4.76,0.89,6.03c0.63,1.27,3.01,4.59,3.29,5.88
						C404.73,283.4,407.92,282.47,407.92,282.47z"/>
				</g>
			</g>
			<g>
				<g>
					<path class="st18" d="M457.21,276.1c0,0-2.61-4.38-3.5-4.78c-0.89-0.39-2.14-0.61-3.24-1.4c-1.1-0.78-2.54-1.43-2.47-1.7
						c0.08-0.26,1.37-0.16,2.75,0.44c1.38,0.6,1.99,0.31,2.12,0c0.13-0.31-0.74-2.52-1.15-3.05c-0.42-0.52-3.39-3.51-2.9-3.96
						c0.5-0.44,2.43,1.2,2.74,1.54c0,0-1.54-3.23-0.94-3.39c0.6-0.16,1.72,0.99,1.72,0.99s-0.13-2.77,2.84,1.72
						c0,0-0.63-1.49,0.29-0.99c0.91,0.5,1.8,3.29,2.09,4.7c0.29,1.41,1.59,5.9,2.7,6.98C461.38,274.3,457.21,276.1,457.21,276.1z"/>
				</g>
			</g>
			<g>
				<g>
					<path class="st37" d="M447.04,293.41c0,0-1.37,0.12-4.3-0.89c-2.92-1.01-3.14-6.12-3.77-5.51c-1.29,1.24-2.51,0.38-3-0.35
						c0,0,1.43-1.88,0.77-2.78c-0.66-0.9-1.74-1.56-1.74-1.56s2.06-9.91,11.41-5.39C457.37,282.21,447.04,293.41,447.04,293.41z"/>
				</g>
			</g>
			<g>
				<g>
					<path class="st38" d="M436.52,298.69l0.33-1.43c0,0,5.97-0.12,9.23,0.35l0.34,1.71C446.42,299.32,442.25,301.21,436.52,298.69z
						"/>
				</g>
			</g>
			<g>
				<g>
					<path class="st18" d="M437.99,285.76c0.54-0.9,2.55-1.51,2.78,1.04c0.18,1.98-3.58,4.14-3.62,2.3
						C437.12,287.26,437.63,286.36,437.99,285.76z"/>
				</g>
			</g>
			<g>
				<g>
					<path class="st39" d="M407.77,281.65c0,0-2.15,0.05-3.2,1c0,0-0.07,0.6,0.17,1.07c0,0,1.87-0.87,3.3-1.03
						C408.05,282.68,408.02,281.9,407.77,281.65z"/>
				</g>
			</g>
			<g>
				<g>
					<path class="st37" d="M405.23,282.19c-0.2,0.47,0.02,1.01,0.49,1.21c0.47,0.2,1.01-0.02,1.21-0.49
						c0.2-0.47-0.02-1.01-0.49-1.21C405.98,281.49,405.43,281.71,405.23,282.19z"/>
				</g>
			</g>
		</g>
		<g>
			<g>
				<g>
					<path class="st40" d="M352.32,205.63c0,0,3.08,5.22,4.38,6.07c1.77,1.16,0.66,2.33-0.18,2.33c-0.84,0-5.12,0.31-6.06-0.76
						c-0.94-1.07-1.41-4.28-2.29-5.12c-0.88-0.84-1.78-4.17,0.43-4.98C350.55,202.45,352.32,205.63,352.32,205.63z"/>
				</g>
			</g>
		</g>
		<g>
			<g>
				<g>
					<path class="st41" d="M350.99,203.33c0,0,3.53,6.11,4.13,7.02c0.61,0.9-1.14,0.9-2.23,0.47c-1.09-0.43-3.82-4.81-4.21-5.61
						c-0.47-0.95-0.08-2.04-0.08-2.04L350.99,203.33z"/>
				</g>
			</g>
		</g>
		<g>
			<g>
				<g>
					<polygon class="st40" points="347.42,206.62 348.23,212.89 348.66,212.91 348.53,208.4 					"/>
				</g>
			</g>
		</g>
		<g>
			<g>
				<g>
					<path class="st40" d="M321.79,205.63c0,0,3.08,5.22,4.38,6.07c1.77,1.16,0.66,2.33-0.18,2.33c-0.84,0-5.12,0.31-6.06-0.76
						c-0.94-1.07-1.41-4.28-2.29-5.12c-0.88-0.84-1.81-4.26,0.43-4.98C320.03,202.53,321.79,205.63,321.79,205.63z"/>
				</g>
			</g>
		</g>
		<g>
			<g>
				<g>
					<path class="st41" d="M320.64,203.34c0,0,3.34,6.1,3.95,7c0.61,0.9-1.15,0.9-2.23,0.47c-1.09-0.43-3.82-4.81-4.21-5.61
						c-0.47-0.95-0.08-2.04-0.08-2.04L320.64,203.34z"/>
				</g>
			</g>
		</g>
		<g>
			<g>
				<g>
					<polygon class="st40" points="316.88,206.62 317.69,212.89 318.13,212.91 317.99,208.4 					"/>
				</g>
			</g>
		</g>
		<g>
			<g>
				<g>
					<path class="st41" d="M308.12,158.12l27.86,12.7c0,0,3.11,1.01,3.46,4.46c1.09,10.78,9.15,27.88,9.15,27.88
						c2.59,1.26,2.39,0.17,2.39,0.17c-1.63-5.23-3.62-26.8-4.32-35.48c-0.15-1.84-0.24-3.09-0.26-3.5
						c-0.01-0.27-0.31-0.63-0.83-1.05c-3.82-3.1-19.56-9.52-19.56-9.52C314.2,153.49,308.12,158.12,308.12,158.12z"/>
				</g>
			</g>
		</g>
		<g>
			<g>
				<g>
					<path class="st41" d="M302.87,163.57c0.86,7.53,11.61,6.67,11.61,6.67h13.03c0,0-3.42,7.62-4.75,14.04
						c-1.4,6.82-4.71,18.88-4.71,18.88s0.22,0.41,2.57,0.18c0,0,10.23-20.39,14.14-25.51c0.84-1.1,3.26-7.09,3.67-10.66
						c0.14-1.2,0.05-2.13-0.39-2.51c-0.45-0.38-1.49-1.09-2.88-1.97c-4.08-2.57-11.17-6.54-15.12-7.42
						c-5.29-1.19-13.65-3.42-13.65-3.42S302.01,156.04,302.87,163.57z"/>
				</g>
			</g>
		</g>
		<g>
			<path class="st42" d="M311.74,105.56c0,0-1.95-3.7-1-7.65c0.95-3.94,4.61-7.87,9.97-6.07c5.36,1.8,9.69,5.97,6.48,10.78
				c-3.21,4.81,2.91,6.98,1.35,9.27c-1.56,2.29-0.97,4.68-0.31,5.21c0.66,0.53,2.79,2.43,2.55,4.68
				c-0.23,2.25-10.39-6.55-10.39-6.55S314.85,104.12,311.74,105.56z"/>
		</g>
		<g>
			<path class="st43" d="M328.07,152.89c0,0-0.81,3.92-21.62-1.03C306.45,151.86,313.43,149.54,328.07,152.89z"/>
		</g>
		<g>
			<g>
				<path class="st44" d="M306.22,152.96c-0.32,0.62-0.65,1.23-0.97,1.85c7.61,0.22,15.21,0.44,22.82,0.67
					c-1.2-4.03-0.81-9.49-0.6-13.63c0.26-5.06,3.05-8.58,2.75-13.69c1.5,0.24,1.76,0.29,3.27,0.52c-2.31-6.57-3.09-9.82-10.25-12.35
					c-2.33-0.82-3.86-0.99-6.39-0.78c-8.29,0.68-10.79,0.78-14.87,8.3c6.38,1.02,5.33,3.3,7.26,9.65c0.94,3.09,1.93,6.54,1.42,9.81
					C310.17,146.51,306.22,150.03,306.22,152.96z"/>
			</g>
		</g>
		<g>
			<g>
				<path class="st18" d="M319.45,117.91c-3.39-0.64-2.67-2.53-2.67-2.53s0.16-1.07,0.22-2.41c0.02-0.34,0.02-0.71,0.02-1.08
					c0-0.56-0.03-1.13-0.09-1.67c-0.28-2.28,6.16-0.92,6.16-0.92s-0.37,4.61,0.52,5.99C324.49,116.68,322.84,118.55,319.45,117.91z"
					/>
			</g>
		</g>
		<g>
			<g>
				<path class="st18" d="M312.98,115.37c0,0,6.85,7.9,9.38,9.74c0,0,2.91-2.63,1.12-9.57
					C323.47,115.54,320.16,113.89,312.98,115.37z"/>
			</g>
		</g>
		<g>
			<path class="st18" d="M313.16,96.35c0,0-3.56,6.85-0.03,13.34c3.53,6.49,10.45-2.83,10.9-3.92c0.45-1.09,2.82-7.27-1.9-9.15
				C317.41,94.74,314.17,94.49,313.16,96.35z"/>
		</g>
		<g>
			<path class="st42" d="M314.34,98.78c0,0-2.45,3.21-2.74,5.59c0,0-0.97-4.49,1.78-8.81c2.75-4.31,9.76-0.21,10.7,1.52
				c0.94,1.72,3.69,3.24-0.93,10.65C323.15,107.73,314.85,101.96,314.34,98.78z"/>
		</g>
		<g>
			<path class="st45" d="M320.03,110.37c0,0-0.62,1.35-3.03,2.6c0.02-0.34,0.02-0.71,0.02-1.08
				C317.02,111.89,318.65,111.7,320.03,110.37z"/>
		</g>
		<g>
			<path class="st18" d="M284.09,146.79c0,0-1.69,0.75-2.49,0.41c-0.8-0.34-2.04-0.41-2.43-0.41c-0.52,0-2.16-0.58-2.13,0.05
				c0.03,0.64,2.66,1.09,3.2,1.29c0.54,0.2-1.61,1.38-1.81,1.91c-0.2,0.53,2.22,3.97,3.59,2.99c1.37-0.98,2.11-2.94,2.39-3.07
				s1.03-0.67,1.03-0.67L284.09,146.79z"/>
		</g>
		<g>
			<path class="st18" d="M278.68,149.74c0,0-3.96,3.29-4.03,3.73c-0.06,0.44,0.15,0.65,0.53,0.36c0.38-0.29,3.93-3.06,3.93-3.06
				s-3.97,4.69-4.11,5.04c-0.08,0.2,0.3,0.63,0.52,0.49c0.22-0.14,4.45-4.55,4.45-4.55s-3.7,4.39-3.72,4.71
				c-0.02,0.29,0.43,0.6,0.73,0.29c0.3-0.31,3.98-4.18,3.98-4.18s-2.47,3.37-2.32,3.66c0.09,0.18,0.41,0.56,1.02-0.33
				c0.61-0.89,2.28-2.83,2.28-2.83L278.68,149.74z"/>
		</g>
		<g>
			<g>
				<path class="st15" d="M326.16,170.24h-11.67c0,0-10.75,0.86-11.61-6.67c-0.86-7.53,3.54-11.71,3.54-11.71s5.68,1.51,10.64,2.71
					c2.48-0.53,5.47-0.87,8.97-0.78c0,0,21.02,6.95,20.39,10.6C346.4,164.39,337.61,159.69,326.16,170.24z"/>
			</g>
		</g>
		<g>
			<polygon class="st46" points="318.56,157.2 340.81,156.88 329.58,162.58 			"/>
		</g>
		<g>
			<path class="st44" d="M325.47,154.36c0,0-5.01,1.94-11.14,0.19l-0.29-2.29l12.63,0.7L325.47,154.36z"/>
		</g>
		<g>
			<polygon class="st47" points="329.58,162.58 318.56,158.31 318.56,157.2 330.45,161.49 			"/>
		</g>
		<g>
			<g>
				<path class="st48" d="M325.4,155.42c-0.06,0.82,0.77,1.41,1.53,1.09l1.29-0.55c0.39-0.17,0.61-0.58,0.55-0.99
					c-0.54-3.37-1.69-16.47,0-18.71c0.62-0.83,1.01-1.56,1.23-2.2c1.11,2.87,2.5,6.57,3.05,8.56l10.51,13.98l3.53,0.89
					c-4.4-10.6-7.93-16.21-7.93-16.21c-0.69-1.85-2.66-7.44-4.41-12.42c-1.1-3.14-2.12-6.04-2.66-7.6
					c-0.28-0.79-0.82-1.46-1.54-1.89c-1.63-0.97-4.34-2.51-6.8-3.7c-0.01,0-0.02-0.01-0.03-0.01c-0.08-0.04-0.16-0.08-0.24-0.11
					c0,0,0,0,0,0c0,0,0,0,0,0c4.68,7.08,2.85,27.07,1.93,39.85C325.4,155.4,325.4,155.41,325.4,155.42z"/>
			</g>
			<g>
				<path class="st48" d="M308.03,116.15c-1.5,0.23-5.21,3.84-7.19,7.48c-2.25,4.16-4.54,8.89-6.26,10.44
					c-3.16,2.86-12,12.98-12.42,12.73c-0.16-0.09,2.42,3.02,2.75,3.17c0.16,0.07,14.54-12.38,15.91-14.28
					c1.31-1.8,4.81-9.35,5.86-9.18c0,0,0,0,0,0.01c0,0,0,0,0,0c0.08,0.17,1.35,2.93,2.56,6.97c0.02,0.07,0.04,0.13,0.06,0.2
					c0.83,2.81,0.75,5.87,0.3,9.3c-0.34,2.59-2.27,6.83-3.44,8.89c-0.14,0.25-0.1,0.72,0.05,1.08v0c0.09,0.21,0.22,0.39,0.38,0.45
					l4.22,1.56l0.99,0.37c0.71,0.26,1.46,0.13,2.02-0.28c0.46-0.33,0.79-0.85,0.87-1.47c0.94-7.22,2.13-14.59,3.07-17.37
					c4.15-12.19-1.62-21.34-1.62-21.34S309.34,115.65,308.03,116.15z"/>
			</g>
		</g>
		<g>
			<polygon class="st49" points="306.05,151.2 312.67,133.13 334.01,133.48 327.7,150.13 			"/>
		</g>
		<g>
			<path class="st50" d="M343.02,152.5c-0.65,1.3-0.45,2.72,0.44,3.17c0.89,0.45,2.15-0.25,2.8-1.55c0.65-1.3,0.46-2.72-0.44-3.17
				C344.93,150.51,343.67,151.2,343.02,152.5z"/>
		</g>
		<g>
			<path class="st42" d="M320.53,103.17c0,0,1.37,2.13,0.1,3.96c-1.26,1.83,0.32,3.64,0.59,5.58c0.27,1.94-5.27,7.1,0.9,9.7
				c6.17,2.6,8.13-1.7,6.55-4.06c-1.57-2.36-2.69-4.28-2.82-7.65C325.72,107.33,324.62,102.08,320.53,103.17z"/>
		</g>
		<g>
			<polygon class="st14" points="275.87,77.65 302.15,77.65 302.15,96.7 302.15,100.71 298.13,96.7 275.87,96.7 			"/>
		</g>
	</g>
</g>
</svg>
